<?xml version="1.0" encoding="utf-8"?>
<!-- Generator: Adobe Illustrator 19.0.0, SVG Export Plug-In . SVG Version: 6.00 Build 0)  -->
<svg version="1.1" id="Warstwa_1" xmlns="http://www.w3.org/2000/svg" xmlns:xlink="http://www.w3.org/1999/xlink" x="0px" y="0px"
	 viewBox="69 194 750 405" style="enable-background:new 69 194 750 405;" xml:space="preserve">
<style type="text/css">
	.st0{fill:#D5EFFA;}
	.st1{fill:url(#XMLID_70_);}
	.st2{fill:url(#XMLID_71_);}
	.st3{fill:url(#XMLID_72_);}
	.st4{fill:url(#XMLID_73_);}
	.st5{fill:url(#XMLID_74_);}
	.st6{fill:url(#XMLID_75_);}
	.st7{fill:url(#XMLID_76_);}
	.st8{fill:url(#XMLID_77_);}
	.st9{fill:url(#XMLID_78_);}
	.st10{fill:url(#XMLID_79_);}
	.st11{fill:url(#XMLID_80_);}
	.st12{fill:url(#XMLID_81_);}
	.st13{fill:url(#XMLID_82_);}
	.st14{fill:url(#SVGID_1_);}
	.st15{fill:url(#XMLID_83_);}
	.st16{fill:url(#XMLID_84_);}
	.st17{fill:#004B4F;}
	.st18{fill:url(#XMLID_85_);}
	.st19{fill:url(#XMLID_86_);}
	.st20{fill:url(#XMLID_87_);}
	.st21{fill:url(#XMLID_88_);}
	.st22{fill:url(#XMLID_89_);}
	.st23{fill:url(#XMLID_90_);}
	.st24{fill:url(#XMLID_91_);}
	.st25{fill:url(#XMLID_92_);}
	.st26{fill:url(#XMLID_93_);}
	.st27{fill:url(#XMLID_94_);}
	.st28{fill:url(#XMLID_95_);}
	.st29{fill:url(#XMLID_96_);}
	.st30{fill:url(#XMLID_97_);}
	.st31{fill:url(#XMLID_98_);}
	.st32{fill:url(#XMLID_99_);}
	.st33{fill:url(#XMLID_100_);}
	.st34{fill:url(#XMLID_101_);}
	.st35{fill:url(#XMLID_102_);}
	.st36{fill:url(#XMLID_103_);}
	.st37{fill:url(#XMLID_104_);}
	.st38{fill:url(#XMLID_105_);}
	.st39{fill:url(#XMLID_106_);}
	.st40{fill:url(#XMLID_107_);}
	.st41{fill:url(#XMLID_108_);}
	.st42{fill:url(#XMLID_109_);}
	.st43{fill:url(#XMLID_110_);}
	.st44{fill:url(#XMLID_111_);}
	.st45{fill:url(#XMLID_112_);}
	.st46{fill:url(#XMLID_113_);}
	.st47{fill:url(#XMLID_114_);}
	.st48{fill:url(#XMLID_115_);}
	.st49{fill:url(#XMLID_116_);}
	.st50{fill:url(#XMLID_117_);}
	.st51{fill:url(#XMLID_118_);}
	.st52{fill:url(#XMLID_119_);}
	.st53{fill:url(#XMLID_120_);}
	.st54{fill:url(#XMLID_121_);}
	.st55{fill:url(#XMLID_122_);}
	.st56{fill:url(#XMLID_123_);}
	.st57{fill:url(#SVGID_2_);}
	.st58{fill:url(#SVGID_3_);}
	.st59{fill:url(#XMLID_124_);}
	.st60{fill:url(#SVGID_4_);}
	.st61{fill:url(#SVGID_5_);}
	.st62{fill:url(#XMLID_125_);}
	.st63{fill:url(#XMLID_126_);}
	.st64{fill:url(#XMLID_127_);}
</style>
<path id="XMLID_65_" class="st0" d="M714.8,526.9c-84.9,76.9-211.3,89.5-305.2,29.6c-39.6-25.2-71.8-62.4-75.4-116.9
	C324.5,290.2,480.7,282,547.7,295.1c32,6.3,52.4-11.7,73.2-33.4c26.9-28,67.1-59.9,105.3-35.5c22.3,14.3,37.6,38.4,47.8,62
	c30,69.5,17.1,150.6-32.6,210.8C733.3,509,724.3,518.3,714.8,526.9z"/>
<linearGradient id="XMLID_70_" gradientUnits="userSpaceOnUse" x1="382.6141" y1="-439.0193" x2="357.1707" y2="-467.8561" gradientTransform="matrix(0.7397 -0.3672 -0.4258 -0.8577 8.1484 273.1847)">
	<stop  offset="0" style="stop-color:#DA3D8E"/>
	<stop  offset="0.3205" style="stop-color:#E25DA0"/>
	<stop  offset="0.9946" style="stop-color:#F4ABCC"/>
</linearGradient>
<path id="XMLID_64_" class="st1" d="M479.8,501.6c0,0-7.7,10-8.2,11.1c-0.4,1.1-1.7,2.9-1.8,7c-0.1,4.1-1.8,7.5-2.4,9.6
	c-0.6,2.1-1.9,3.8-1.6,4.6c0.3,0.8,2.8,2.7,5.8,0.8c3-1.9,3.6-4.4,3.8-5.9c0.3-1.5,1.6-6.2,2.7-8.8s2.7-3.7,3.5-4.7s4.1-5.6,4.1-5.6
	L479.8,501.6z"/>
<linearGradient id="XMLID_71_" gradientUnits="userSpaceOnUse" x1="244.4548" y1="-216.9876" x2="216.1826" y2="-243.0271" gradientTransform="matrix(0.9441 -0.3297 -0.3297 -0.9441 171.8526 377.9475)">
	<stop  offset="0" style="stop-color:#DA3D8E"/>
	<stop  offset="0.3205" style="stop-color:#E25DA0"/>
	<stop  offset="0.9946" style="stop-color:#F4ABCC"/>
</linearGradient>
<path id="XMLID_63_" class="st2" d="M475.2,496.6c0,0-11.1,10-11.8,11.1c-0.7,1.1-2.5,2.9-3.5,7.2c-1,4.3-3.7,7.8-4.8,10
	c-1.2,2.2-3,3.9-2.8,4.7s2.7,3.1,6.7,1.3c4-1.7,5.1-4.4,5.7-6s3.1-6.4,5-9.1c1.8-2.7,3.9-3.7,5-4.8c1.1-1,6-5.6,6-5.6L475.2,496.6z"
	/>
<linearGradient id="XMLID_72_" gradientUnits="userSpaceOnUse" x1="468.1665" y1="481.7514" x2="442.175" y2="549.1368">
	<stop  offset="0" style="stop-color:#DA3D8E"/>
	<stop  offset="0.3205" style="stop-color:#E25DA0"/>
	<stop  offset="0.9946" style="stop-color:#F4ABCC"/>
</linearGradient>
<path id="XMLID_62_" class="st3" d="M469.3,491.1c0,0-13.5,8.8-14.5,9.9s-3.2,2.7-4.9,7.1s-5.2,7.7-6.8,9.9
	c-1.6,2.2-3.9,3.6-3.7,4.6c0.1,0.9,2.4,3.7,6.9,2.5c4.5-1.2,6.2-3.8,7.1-5.4s4.4-6.3,6.8-8.8s4.8-3.3,6.1-4.2c1.4-0.9,7.3-5,7.3-5
	L469.3,491.1z"/>
<linearGradient id="XMLID_73_" gradientUnits="userSpaceOnUse" x1="453.3075" y1="307.855" x2="446.0303" y2="270.0789" gradientTransform="matrix(1 0 0 -1 0 794)">
	<stop  offset="0" style="stop-color:#DA3D8E"/>
	<stop  offset="0.3205" style="stop-color:#E25DA0"/>
	<stop  offset="0.9946" style="stop-color:#F4ABCC"/>
</linearGradient>
<path id="XMLID_61_" class="st4" d="M465.7,484.5c0,0-13.8,5.8-14.9,6.6c-1.1,0.8-3.4,1.9-5.7,5.7c-2.3,3.8-6,6.1-7.9,7.9
	c-1.8,1.7-4.1,2.7-4.2,3.5c0,0.9,1.5,3.8,5.8,3.4s6.3-2.5,7.4-3.8s5.1-5,7.7-6.9s4.9-2.3,6.3-2.8c1.4-0.6,7.5-3.3,7.5-3.3
	L465.7,484.5z"/>
<linearGradient id="XMLID_74_" gradientUnits="userSpaceOnUse" x1="487.638" y1="300.0325" x2="491.6916" y2="275.1839" gradientTransform="matrix(1 0 0 -1 0 794)">
	<stop  offset="0" style="stop-color:#DA3D8E"/>
	<stop  offset="0.3205" style="stop-color:#E25DA0"/>
	<stop  offset="0.9946" style="stop-color:#F4ABCC"/>
</linearGradient>
<path id="XMLID_60_" class="st5" d="M464.2,481.8c-0.3,4.5-1.1,9.9,5.7,19s7.9,11.5,11.9,11.9c4,0.4,11,2,18.9,0
	c7.9-2,9.7-5.6,9.7-5.6l-2.2-25.3H464.2z"/>
<linearGradient id="XMLID_75_" gradientUnits="userSpaceOnUse" x1="537.9781" y1="326.5941" x2="663.0598" y2="282.5829" gradientTransform="matrix(1 0 0 -1 0 794)">
	<stop  offset="0" style="stop-color:#FFD8C2"/>
	<stop  offset="1" style="stop-color:#FFB49C"/>
</linearGradient>
<path id="XMLID_59_" class="st6" d="M622.6,455.9c0,0-16,14.5-20.5,15.6s-74.6,5.6-74.6,5.6V505c0,0,55.8,4.5,70.4,5.3
	s24.7,0.3,31.1-4.5c6.4-4.7,22.7-19.3,22.7-19.3L622.6,455.9z"/>
<linearGradient id="XMLID_76_" gradientUnits="userSpaceOnUse" x1="519.35" y1="332.3989" x2="519.35" y2="270.3036" gradientTransform="matrix(1 0 0 -1 0 794)">
	<stop  offset="0" style="stop-color:#DA3D8E"/>
	<stop  offset="0.3205" style="stop-color:#E25DA0"/>
	<stop  offset="0.9946" style="stop-color:#F4ABCC"/>
</linearGradient>
<path id="XMLID_58_" class="st7" d="M531.7,471.5c-2.8-0.3-21.8,2.7-23.6,2.7c-1.9,0-4.3,0.6-4.3,4s1.3,19.6,1.9,25.4s1.5,6.5,3,7
	s12.7,1.9,18,2c5.3,0.1,8.2,0.1,8.2-2.8C534.9,507,534.5,471.8,531.7,471.5z"/>
<linearGradient id="XMLID_77_" gradientUnits="userSpaceOnUse" x1="478.5392" y1="468.9595" x2="470.6208" y2="495.8507">
	<stop  offset="0" style="stop-color:#DA3D8E"/>
	<stop  offset="0.3205" style="stop-color:#E25DA0"/>
	<stop  offset="0.9946" style="stop-color:#F4ABCC"/>
</linearGradient>
<path id="XMLID_57_" class="st8" d="M505.9,487.8c-7.2,4.7-10.4,8.9-24.1,5.9c-13.7-3.1-14.6-8.8-18.1-8.1s-8.3,3.5-13.9,2.9
	s-10.5-3.8-7.7-6s6.3-3.5,11.1-5.7c4.8-2.2,6.9-3.8,12.1-3.8s14.9,1.4,22.6,0.8s12.9-1.3,14.4-0.8c1.5,0.4,3.6,2.9,3.6,2.9V487.8z"
	/>
<linearGradient id="XMLID_78_" gradientUnits="userSpaceOnUse" x1="612.5179" y1="393.8109" x2="756.5099" y2="300.461" gradientTransform="matrix(1 0 0 -1 0 794)">
	<stop  offset="5.376341e-003" style="stop-color:#0071BC"/>
	<stop  offset="1" style="stop-color:#2E3192"/>
</linearGradient>
<path id="XMLID_56_" class="st9" d="M664.9,391.5c0,0-15.9,4.7-22.9,10.7s-17.6,41.8-22.8,48.8c-3.8,3.4-5,4.3-4.5,6.6
	c0.6,2.2,6.6,12.3,20.2,24c13.6,11.7,18.5,10.9,19.9,10.2s6.6-8.6,6.6-8.6l21.7,54.8l96.3,8.2c0,0-10.9-16-10.1-40.6
	c0.8-22.1,23.7-77-1.6-96c-25.2-19-50-30.7-50-30.7L664.9,391.5z"/>
<linearGradient id="XMLID_79_" gradientUnits="userSpaceOnUse" x1="693.3696" y1="396.1057" x2="683.8771" y2="440.7757" gradientTransform="matrix(1 0 0 -1 0 794)">
	<stop  offset="0" style="stop-color:#FFD8C2"/>
	<stop  offset="1" style="stop-color:#FFB49C"/>
</linearGradient>
<path id="XMLID_55_" class="st10" d="M670.5,370.2c0,0,0.7,11,0,14.2s-6,7.1-6.4,8.2c-0.5,1.1-0.8,19.2,16.6,20.3
	c26.7,1.7,39.3-30,38-32.7c-1.2-2.7-9.6-6.2-11.8-13.2c-2.1-7-3.1-19.9-3.1-19.9h-33.7L670.5,370.2z"/>
<linearGradient id="XMLID_80_" gradientUnits="userSpaceOnUse" x1="686.9717" y1="416.2565" x2="681.141" y2="443.695" gradientTransform="matrix(1 0 0 -1 0 794)">
	<stop  offset="0" style="stop-color:#FFD8C2"/>
	<stop  offset="1" style="stop-color:#FFB49C"/>
</linearGradient>
<path id="XMLID_54_" class="st11" d="M705.3,359.2c-1-6.1-1.4-12.1-1.4-12.1h-33.7l0.4,23.1c0,0,0.7,11,0,14.2
	c-0.5,2-2.7,4.2-4.4,5.9C683.3,387.8,699.3,377.1,705.3,359.2z"/>
<linearGradient id="XMLID_81_" gradientUnits="userSpaceOnUse" x1="723.3188" y1="356.2016" x2="729.998" y2="427.0422" gradientTransform="matrix(1 0 0 -1 0 794)">
	<stop  offset="0" style="stop-color:#DA3D8E"/>
	<stop  offset="0.3205" style="stop-color:#E25DA0"/>
	<stop  offset="0.9946" style="stop-color:#F4ABCC"/>
</linearGradient>
<path id="XMLID_50_" class="st12" d="M713.2,429.5c0,0,2.4-29.2,12.7-46.4c0,0,0.6-1.2,2.1-0.6s9.1,4.8,10,5.5s0.7,2.3,0.7,2.3
	s-8.9,20.1-9.1,39.2H713.2z"/>
<linearGradient id="XMLID_82_" gradientUnits="userSpaceOnUse" x1="653.5139" y1="357.1723" x2="666.3002" y2="418.4235" gradientTransform="matrix(1 0 0 -1 0 794)">
	<stop  offset="0" style="stop-color:#DA3D8E"/>
	<stop  offset="0.3205" style="stop-color:#E25DA0"/>
	<stop  offset="0.9946" style="stop-color:#F4ABCC"/>
</linearGradient>
<path id="XMLID_49_" class="st13" d="M663.9,429.9c0,0-4.5-18.8-1.8-36.1c0,0-0.4-1.4-1.3-1c-0.9,0.5-6.9,1.9-7.5,2.9
	c-0.6,0.9-1.1,6.4-1.1,6.4s-2,19.6,2.5,32.1L663.9,429.9z"/>
<linearGradient id="SVGID_1_" gradientUnits="userSpaceOnUse" x1="716.9286" y1="641.2042" x2="716.9286" y2="378.5827">
	<stop  offset="0" style="stop-color:#DA3D8E"/>
	<stop  offset="0.3205" style="stop-color:#E25DA0"/>
	<stop  offset="0.9946" style="stop-color:#F4ABCC"/>
</linearGradient>
<path class="st14" d="M796.4,599c-1.1-22.2-17.4-56.3-17.2-58.6c0,0-9.9-32.1-9.9-32.2c0.2,5.1-2.1,7.8-8.1,1.1
	c-2.7-3-5.6-6.3-8.5-10.2c-8.5-11.6-13.4-25.3-16.3-37.2c-2.8-12-3.7-22.1-4.1-26.6c0-0.3-0.1-0.7-0.1-1c-0.4-4.2-0.9-6.5-2.5-7.8
	c-1.4-1.2-3.7-1.5-7.7-1.5c-1.8,0-4.7,0.1-8.4,0.2c-14.5,0.4-40.3,1.6-49.7,1.6h-0.7c-2.6,0.1-4.7,0.8-6.2,1.9s-2.5,2.5-3,4
	c-10.9,16.6-18,25.7-16.2,35.8c2.8,15.8,19.7,28,28.1,38.9c0.3,0.3,0.5,0.8,0.6,1.2c2.7,9.5,0-2.4,2.4,5.4c0.3,0.8,0.5,1.5,0.7,2.2
	c1.4,4.4,2.5,8.2,2.9,11.3c0.6,4.3,0,15-1.3,28c-0.8,9.1-10.7,38.2-19.4,43.5h136.4H796.4z"/>
<linearGradient id="XMLID_83_" gradientUnits="userSpaceOnUse" x1="658.4705" y1="358.6301" x2="664.3527" y2="355.2413" gradientTransform="matrix(1 0 0 -1 0 794)">
	<stop  offset="0" style="stop-color:#FFFFFF"/>
	<stop  offset="1" style="stop-color:#CED2F7"/>
</linearGradient>
<ellipse id="XMLID_47_" class="st15" cx="661.3" cy="437" rx="4.1" ry="4"/>
<linearGradient id="XMLID_84_" gradientUnits="userSpaceOnUse" x1="718.165" y1="361.4333" x2="724.0472" y2="358.0444" gradientTransform="matrix(1 0 0 -1 0 794)">
	<stop  offset="0" style="stop-color:#FFFFFF"/>
	<stop  offset="1" style="stop-color:#CED2F7"/>
</linearGradient>
<ellipse id="XMLID_46_" class="st16" cx="721" cy="434.2" rx="4.1" ry="4"/>
<path id="XMLID_45_" class="st17" d="M503.2,572.4c0,0,4.3-19.2,5-32.4c0.8-13.2,0.2-50-1.4-56.4s-1.7-14.1-3.6-19.9
	s-5.9-16.1-9.6-21.4c-3.7-5.3-14.5-30.4-17.8-34.4c-3.3-4.1-4.2-7.6-4.2-13c0-5.3,0.1-36.4,0-41s-0.7-10.4-0.7-15.1
	s-0.5-18.8,1.2-25.9c1.7-7.1-0.1-12.4-0.3-17.8c-0.2-5.5,1.4-17.5,1.4-17.5l1.4,5.1c0,0-1.4,8.3-0.8,12.8s1.4,10.1,1.4,15.3
	c0,5.1-1.4,6.9-1.1,15.4s0.6,18.5,1.1,23.6c0.5,5.1,0.5,24.1,0.9,30.5c0.5,6.4,0,13.5,2.8,20.6c2.8,7.1,7.2,14.9,11.8,23
	c4.6,8,12.4,23.4,14.9,27.6c2.4,4.2,3.8,5.6,4.3,10.4s4.6,17.4,5,23.6s1.3,15.4,1.3,24s0.6,20.5,1.7,29.2c1.1,8.7,4.4,22.3,4.1,33.7
	H503.2L503.2,572.4z"/>
<path id="XMLID_44_" class="st17" d="M473.8,404.7c-4.4-5-6.7-11.3-8.1-13.5c-1.4-2.2-6.4-7.7-6.8-8.7c-0.5-1-2.7-14.8-3.2-17
	s-2.1-10.6-3.2-14.9c-1.1-4.3-2.3-12.9-3.3-18.7c-1-5.8-2.3-10.7-2.3-10.7l1,0.7c0,0,2.7,8.7,3,10.1c0.2,1.4,1.8,10.6,2.5,12.8
	s1.8,4.5,2.3,7.1s1.4,11.4,2.7,15.1c1.4,3.6,3,11.2,4.3,14.3c1.4,3.1,3.2,4.6,4.2,5.5c1,1,6.9,8.8,6.9,8.8V404.7z"/>
<path id="XMLID_43_" class="st17" d="M474.7,382c0,0,3.3-11.2,5.9-16.9c2.6-5.6,2.9-9.5,5-14.9c2.1-5.5,5.2-10.1,5.5-15.4
	c0.3-5.3,1.7-17.5,1.7-17.5l-2.1,1.3c0,0-0.8,13.2-1.5,16.5c-0.8,3.4-4.6,12.4-6.5,15.7c-2,3.4-8.8,20.9-8.8,20.9L474.7,382z"/>
<path id="XMLID_42_" class="st17" d="M513.6,490.3c0,0,7.4-16.7,8.4-22.6s3.5-18.9,8.1-27.9c4.5-9,9.1-18.2,12-23.8
	c2.9-5.6,9.3-13.5,10.5-17.3c1.2-3.9,3.2-18,4.9-22.3c1.7-4.3,3.8-15.3,3.8-15.3l-1.7,2c0,0-4.1,12.7-5.3,15.9s-3.5,16.4-4.9,19.9
	c-1.4,3.5-8,12.7-10.3,14c-2.3,1.3-2.6,4.7-3,6.4c-0.4,1.7-7.9,16.7-10.3,21c-2.4,4.3-6.8,10.8-7.3,12s-3.7,20.4-7.4,27.1
	L513.6,490.3z"/>
<path id="XMLID_41_" class="st17" d="M524.2,447.1c0,0,0.3-14.8-0.8-22s-3.8-15.9-3.6-20.3c0.2-4.4,0.7-12.3,1.1-17.4
	c0.4-5.1,1.2-11.4,1.1-15.1c-0.1-3.7,0-11.2,0-11.2l1.1,2c0,0-0.2,7.7,0,10c0.1,2.3,0.6,13.2,0.1,14.7s-1.7,15.3-1.1,18.5
	c0.5,3.3,4.3,15.1,4.9,18.9c0.6,3.8,1.1,12.9,1.1,12.9L524.2,447.1z"/>
<linearGradient id="XMLID_85_" gradientUnits="userSpaceOnUse" x1="-195.4614" y1="2185.9875" x2="-180.0973" y2="2179.6055" gradientTransform="matrix(0.3217 0.9468 0.9468 -0.3217 -1460.7225 1310.8053)">
	<stop  offset="0" style="stop-color:#CBF060"/>
	<stop  offset="0.338" style="stop-color:#A3D256"/>
	<stop  offset="0.7792" style="stop-color:#74AF4B"/>
	<stop  offset="1" style="stop-color:#62A147"/>
</linearGradient>
<path id="XMLID_40_" class="st18" d="M546.5,446.9c-8.8,3.2-17.3-5.2-17.3-5.2s1.9-12.1,10.7-15.3c8.8-3.2,21.3,3.8,21.3,3.8
	S555.3,443.8,546.5,446.9z"/>
<linearGradient id="XMLID_86_" gradientUnits="userSpaceOnUse" x1="-197.4444" y1="2194.1333" x2="-162.5905" y2="2161.9604" gradientTransform="matrix(0.3217 0.9468 0.9468 -0.3217 -1460.7225 1310.8053)">
	<stop  offset="0" style="stop-color:#CBF060"/>
	<stop  offset="0.338" style="stop-color:#A3D256"/>
	<stop  offset="0.7792" style="stop-color:#74AF4B"/>
	<stop  offset="1" style="stop-color:#62A147"/>
</linearGradient>
<path id="XMLID_39_" class="st19" d="M546.5,446.9c8.8-3.2,14.7-16.7,14.7-16.7l-32,11.5C529.2,441.7,537.7,450.1,546.5,446.9z"/>
<linearGradient id="XMLID_87_" gradientUnits="userSpaceOnUse" x1="539.9173" y1="794.1843" x2="554.8542" y2="787.9795" gradientTransform="matrix(0.965 0.2622 0.2622 -0.965 -242.5086 1026.9139)">
	<stop  offset="0" style="stop-color:#CBF060"/>
	<stop  offset="0.338" style="stop-color:#A3D256"/>
	<stop  offset="0.7792" style="stop-color:#74AF4B"/>
	<stop  offset="1" style="stop-color:#62A147"/>
</linearGradient>
<path id="XMLID_38_" class="st20" d="M506.4,415.2c-2.4,9.5-13.7,12.2-13.7,12.2s-8.4-8.4-6-17.9s14.9-16.6,14.9-16.6
	S508.8,405.7,506.4,415.2z"/>
<linearGradient id="XMLID_88_" gradientUnits="userSpaceOnUse" x1="536.9882" y1="802.8699" x2="572.7726" y2="769.8381" gradientTransform="matrix(0.965 0.2622 0.2622 -0.965 -242.5086 1026.9139)">
	<stop  offset="0" style="stop-color:#CBF061"/>
	<stop  offset="0.3393" style="stop-color:#A3D257"/>
	<stop  offset="0.7796" style="stop-color:#74AF4B"/>
	<stop  offset="1" style="stop-color:#62A147"/>
</linearGradient>
<path id="XMLID_37_" class="st21" d="M506.4,415.2c2.4-9.5-4.9-22.2-4.9-22.2l-8.9,34.5C492.6,427.4,503.9,424.7,506.4,415.2z"/>
<linearGradient id="XMLID_89_" gradientUnits="userSpaceOnUse" x1="-1308.4862" y1="-923.332" x2="-1293.3729" y2="-929.61" gradientTransform="matrix(0.1253 -0.9921 -0.9921 -0.1253 -280.8517 -963.6174)">
	<stop  offset="0" style="stop-color:#CBF060"/>
	<stop  offset="0.338" style="stop-color:#A3D256"/>
	<stop  offset="0.7792" style="stop-color:#74AF4B"/>
	<stop  offset="1" style="stop-color:#62A147"/>
</linearGradient>
<path id="XMLID_36_" class="st22" d="M481.2,428.2c9.3,1.2,13.4,12.7,13.4,12.7s-6.7,10-15.9,8.8c-9.3-1.2-17.6-13.3-17.6-13.3
	S471.9,427,481.2,428.2z"/>
<linearGradient id="XMLID_90_" gradientUnits="userSpaceOnUse" x1="-1310.2056" y1="-915.493" x2="-1276.3381" y2="-946.7552" gradientTransform="matrix(0.1253 -0.9921 -0.9921 -0.1253 -280.8517 -963.6174)">
	<stop  offset="0" style="stop-color:#CBF060"/>
	<stop  offset="0.338" style="stop-color:#A3D256"/>
	<stop  offset="0.7792" style="stop-color:#74AF4B"/>
	<stop  offset="1" style="stop-color:#62A147"/>
</linearGradient>
<path id="XMLID_35_" class="st23" d="M481.2,428.2c-9.3-1.2-20.1,8.2-20.1,8.2l33.5,4.5C494.6,440.9,490.4,429.4,481.2,428.2z"/>
<linearGradient id="XMLID_91_" gradientUnits="userSpaceOnUse" x1="-215.82" y1="2205.4456" x2="-203.4752" y2="2200.3176" gradientTransform="matrix(0.3217 0.9468 0.9468 -0.3217 -1460.7225 1310.8053)">
	<stop  offset="0" style="stop-color:#CBF060"/>
	<stop  offset="0.338" style="stop-color:#A3D256"/>
	<stop  offset="0.7792" style="stop-color:#74AF4B"/>
	<stop  offset="1" style="stop-color:#62A147"/>
</linearGradient>
<path id="XMLID_34_" class="st24" d="M558.3,416.6c-7.1,2.5-13.9-4.2-13.9-4.2s1.5-9.7,8.6-12.3s17.1,3,17.1,3
	S565.3,414.1,558.3,416.6z"/>
<linearGradient id="XMLID_92_" gradientUnits="userSpaceOnUse" x1="-217.3942" y1="2211.9893" x2="-189.3899" y2="2186.1392" gradientTransform="matrix(0.3217 0.9468 0.9468 -0.3217 -1460.7225 1310.8053)">
	<stop  offset="0" style="stop-color:#CBF060"/>
	<stop  offset="0.338" style="stop-color:#A3D256"/>
	<stop  offset="0.7792" style="stop-color:#74AF4B"/>
	<stop  offset="1" style="stop-color:#62A147"/>
</linearGradient>
<path id="XMLID_33_" class="st25" d="M558.3,416.6c7.1-2.5,11.8-13.4,11.8-13.4l-25.7,9.2C544.4,412.4,551.2,419.2,558.3,416.6z"/>
<linearGradient id="XMLID_93_" gradientUnits="userSpaceOnUse" x1="-922.4234" y1="-913.756" x2="-910.4371" y2="-918.7351" gradientTransform="matrix(0.3543 -0.9351 -0.9351 -0.3543 -81.5661 -791.8348)">
	<stop  offset="0" style="stop-color:#CBF060"/>
	<stop  offset="0.338" style="stop-color:#A3D256"/>
	<stop  offset="0.7792" style="stop-color:#74AF4B"/>
	<stop  offset="1" style="stop-color:#62A147"/>
</linearGradient>
<path id="XMLID_32_" class="st26" d="M457.8,379.3c7,2.8,8.2,12.6,8.2,12.6s-7,6.5-14,3.7s-11.4-13.9-11.4-13.9
	S450.8,376.4,457.8,379.3z"/>
<linearGradient id="XMLID_94_" gradientUnits="userSpaceOnUse" x1="-923.8665" y1="-907.4837" x2="-896.8874" y2="-932.3875" gradientTransform="matrix(0.3543 -0.9351 -0.9351 -0.3543 -81.5661 -791.8348)">
	<stop  offset="0" style="stop-color:#CBF060"/>
	<stop  offset="0.338" style="stop-color:#A3D256"/>
	<stop  offset="0.7792" style="stop-color:#74AF4B"/>
	<stop  offset="1" style="stop-color:#62A147"/>
</linearGradient>
<path id="XMLID_31_" class="st27" d="M457.8,379.3c-7-2.8-17.2,2.4-17.2,2.4l25.4,10.2C465.9,391.8,464.8,382.1,457.8,379.3z"/>
<linearGradient id="XMLID_95_" gradientUnits="userSpaceOnUse" x1="-494.2662" y1="-781.9595" x2="-484.9653" y2="-785.8231" gradientTransform="matrix(0.5689 -0.8224 -0.8224 -0.5689 73.8832 -511.0183)">
	<stop  offset="0" style="stop-color:#CBF060"/>
	<stop  offset="0.338" style="stop-color:#A3D256"/>
	<stop  offset="0.7792" style="stop-color:#74AF4B"/>
	<stop  offset="1" style="stop-color:#62A147"/>
</linearGradient>
<path id="XMLID_30_" class="st28" d="M447.4,331.1c4.8,3.5,4,11.2,4,11.2s-6.5,3.6-11.3,0c-4.8-3.5-6.2-12.8-6.2-12.8
	S442.6,327.5,447.4,331.1z"/>
<linearGradient id="XMLID_96_" gradientUnits="userSpaceOnUse" x1="-495.4854" y1="-776.9731" x2="-474.2984" y2="-796.5303" gradientTransform="matrix(0.5689 -0.8224 -0.8224 -0.5689 73.8832 -511.0183)">
	<stop  offset="0" style="stop-color:#CBF060"/>
	<stop  offset="0.338" style="stop-color:#A3D256"/>
	<stop  offset="0.7792" style="stop-color:#74AF4B"/>
	<stop  offset="1" style="stop-color:#62A147"/>
</linearGradient>
<path id="XMLID_29_" class="st29" d="M447.4,331.1c-4.8-3.5-13.6-1.6-13.6-1.6l17.5,12.8C451.4,342.3,452.3,334.6,447.4,331.1z"/>
<g id="XMLID_1_">
	
		<linearGradient id="XMLID_97_" gradientUnits="userSpaceOnUse" x1="-2.663" y1="-523.7982" x2="5.4821" y2="-527.1816" gradientTransform="matrix(0.8055 -0.5927 -0.5927 -0.8055 168.8107 -92.835)">
		<stop  offset="0" style="stop-color:#CBF060"/>
		<stop  offset="0.338" style="stop-color:#A3D256"/>
		<stop  offset="0.7792" style="stop-color:#74AF4B"/>
		<stop  offset="1" style="stop-color:#62A147"/>
	</linearGradient>
	<path id="XMLID_28_" class="st30" d="M489.4,326.4c3.1,4.4,0.3,10.6,0.3,10.6s-6.4,1-9.5-3.4s-1.7-12.7-1.7-12.7
		S486.3,322,489.4,326.4z"/>
	
		<linearGradient id="XMLID_98_" gradientUnits="userSpaceOnUse" x1="-3.945" y1="-519.2457" x2="15.0421" y2="-536.7723" gradientTransform="matrix(0.8055 -0.5927 -0.5927 -0.8055 168.8107 -92.835)">
		<stop  offset="0" style="stop-color:#CBF060"/>
		<stop  offset="0.338" style="stop-color:#A3D256"/>
		<stop  offset="0.7792" style="stop-color:#74AF4B"/>
		<stop  offset="1" style="stop-color:#62A147"/>
	</linearGradient>
	<path id="XMLID_27_" class="st31" d="M489.4,326.4c-3.1-4.4-10.9-5.5-10.9-5.5l11.2,16.1C489.7,337,492.5,330.9,489.4,326.4z"/>
</g>
<linearGradient id="XMLID_99_" gradientUnits="userSpaceOnUse" x1="10.7704" y1="-475.3349" x2="18.916" y2="-478.7186" gradientTransform="matrix(0.8055 -0.5927 -0.5927 -0.8055 168.8107 -92.835)">
	<stop  offset="0" style="stop-color:#CBF060"/>
	<stop  offset="0.338" style="stop-color:#A3D256"/>
	<stop  offset="0.7792" style="stop-color:#74AF4B"/>
	<stop  offset="1" style="stop-color:#62A147"/>
</linearGradient>
<path id="XMLID_26_" class="st32" d="M471.5,279.4c3.1,4.4,0.3,10.6,0.3,10.6s-6.4,1-9.5-3.4s-1.7-12.7-1.7-12.7
	S468.4,274.9,471.5,279.4z"/>
<linearGradient id="XMLID_100_" gradientUnits="userSpaceOnUse" x1="9.4759" y1="-470.7693" x2="28.463" y2="-488.2958" gradientTransform="matrix(0.8055 -0.5927 -0.5927 -0.8055 168.8107 -92.835)">
	<stop  offset="0" style="stop-color:#CBF060"/>
	<stop  offset="0.338" style="stop-color:#A3D256"/>
	<stop  offset="0.7792" style="stop-color:#74AF4B"/>
	<stop  offset="1" style="stop-color:#62A147"/>
</linearGradient>
<path id="XMLID_25_" class="st33" d="M471.5,279.4c-3.1-4.4-10.9-5.5-10.9-5.5l11.2,16.1C471.8,290,474.6,283.8,471.5,279.4z"/>
<linearGradient id="XMLID_101_" gradientUnits="userSpaceOnUse" x1="130.5792" y1="-360.3611" x2="142.256" y2="-365.2116" gradientTransform="matrix(0.8781 -0.4784 -0.4784 -0.8781 168.697 84.5172)">
	<stop  offset="0" style="stop-color:#CBF060"/>
	<stop  offset="0.338" style="stop-color:#A3D256"/>
	<stop  offset="0.7792" style="stop-color:#74AF4B"/>
	<stop  offset="1" style="stop-color:#62A147"/>
</linearGradient>
<path id="XMLID_24_" class="st34" d="M474,334.8c3.6,7-1.5,15.2-1.5,15.2s-9.3,0.1-12.9-6.9s-0.1-18.3-0.1-18.3
	S470.4,327.8,474,334.8z"/>
<linearGradient id="XMLID_102_" gradientUnits="userSpaceOnUse" x1="128.585" y1="-353.6904" x2="156.0613" y2="-379.0532" gradientTransform="matrix(0.8781 -0.4784 -0.4784 -0.8781 168.697 84.5172)">
	<stop  offset="0" style="stop-color:#CBF060"/>
	<stop  offset="0.338" style="stop-color:#A3D256"/>
	<stop  offset="0.7792" style="stop-color:#74AF4B"/>
	<stop  offset="1" style="stop-color:#62A147"/>
</linearGradient>
<path id="XMLID_23_" class="st35" d="M474,334.8c-3.6-7-14.5-10-14.5-10l13,25.2C472.4,350,477.6,341.7,474,334.8z"/>
<linearGradient id="XMLID_103_" gradientUnits="userSpaceOnUse" x1="415.9049" y1="69.6627" x2="427.6402" y2="64.7879" gradientTransform="matrix(0.9817 -0.1902 -0.1902 -0.9817 130.1635 549.4123)">
	<stop  offset="0" style="stop-color:#CBF060"/>
	<stop  offset="0.338" style="stop-color:#A3D256"/>
	<stop  offset="0.7792" style="stop-color:#74AF4B"/>
	<stop  offset="1" style="stop-color:#62A147"/>
</linearGradient>
<path id="XMLID_22_" class="st36" d="M543.7,404.1c1.4,7.8-5.8,14-5.8,14s-8.9-2.9-10.3-10.7c-1.4-7.8,5.2-17.5,5.2-17.5
	S542.3,396.4,543.7,404.1z"/>
<linearGradient id="XMLID_104_" gradientUnits="userSpaceOnUse" x1="413.6826" y1="76.5327" x2="441.7447" y2="50.6292" gradientTransform="matrix(0.9817 -0.1902 -0.1902 -0.9817 130.1635 549.4123)">
	<stop  offset="0" style="stop-color:#CBF060"/>
	<stop  offset="0.338" style="stop-color:#A3D256"/>
	<stop  offset="0.7792" style="stop-color:#74AF4B"/>
	<stop  offset="1" style="stop-color:#62A147"/>
</linearGradient>
<path id="XMLID_21_" class="st37" d="M543.7,404.1c-1.4-7.8-11-14.2-11-14.2l5.2,28.2C537.9,418.1,545.1,411.9,543.7,404.1z"/>
<linearGradient id="XMLID_105_" gradientUnits="userSpaceOnUse" x1="-72.1458" y1="2061.0183" x2="-59.7854" y2="2055.8838" gradientTransform="matrix(0.4593 0.8883 0.8883 -0.4593 -1304.3196 1351.9144)">
	<stop  offset="0" style="stop-color:#CBF060"/>
	<stop  offset="0.338" style="stop-color:#A3D256"/>
	<stop  offset="0.7792" style="stop-color:#74AF4B"/>
	<stop  offset="1" style="stop-color:#62A147"/>
</linearGradient>
<path id="XMLID_20_" class="st38" d="M496.5,360.6c-6.7,3.6-14.3-2-14.3-2s0.1-9.8,6.8-13.5c6.7-3.6,17.3,0.3,17.3,0.3
	S503.2,356.9,496.5,360.6z"/>
<linearGradient id="XMLID_106_" gradientUnits="userSpaceOnUse" x1="-73.837" y1="2067.6958" x2="-45.5599" y2="2041.5936" gradientTransform="matrix(0.4593 0.8883 0.8883 -0.4593 -1304.3196 1351.9144)">
	<stop  offset="0" style="stop-color:#CBF060"/>
	<stop  offset="0.338" style="stop-color:#A3D256"/>
	<stop  offset="0.7792" style="stop-color:#74AF4B"/>
	<stop  offset="1" style="stop-color:#62A147"/>
</linearGradient>
<path id="XMLID_19_" class="st39" d="M496.5,360.6c6.7-3.6,9.8-15.1,9.8-15.1l-24.1,13.2C482.2,358.6,489.8,364.2,496.5,360.6z"/>
<linearGradient id="XMLID_107_" gradientUnits="userSpaceOnUse" x1="450.4826" y1="1205.3054" x2="460.0663" y2="1201.3245" gradientTransform="matrix(0.8819 0.4714 0.4714 -0.8819 -507.5187 1206.1212)">
	<stop  offset="0" style="stop-color:#CBF060"/>
	<stop  offset="0.338" style="stop-color:#A3D256"/>
	<stop  offset="0.7792" style="stop-color:#74AF4B"/>
	<stop  offset="1" style="stop-color:#62A147"/>
</linearGradient>
<path id="XMLID_18_" class="st40" d="M468.3,366.5c-2.8,5.5-10.1,5.5-10.1,5.5s-4.1-6.4-1.3-12c2.8-5.5,11.4-8,11.4-8
	S471.1,361,468.3,366.5z"/>
<linearGradient id="XMLID_108_" gradientUnits="userSpaceOnUse" x1="448.7362" y1="1210.8446" x2="471.4968" y2="1189.8348" gradientTransform="matrix(0.8819 0.4714 0.4714 -0.8819 -507.5187 1206.1212)">
	<stop  offset="0" style="stop-color:#CBF060"/>
	<stop  offset="0.338" style="stop-color:#A3D256"/>
	<stop  offset="0.7792" style="stop-color:#74AF4B"/>
	<stop  offset="1" style="stop-color:#62A147"/>
</linearGradient>
<path id="XMLID_17_" class="st41" d="M468.3,366.5c2.8-5.5,0-14.5,0-14.5l-10.1,20C458.2,372,465.5,372,468.3,366.5z"/>
<linearGradient id="XMLID_109_" gradientUnits="userSpaceOnUse" x1="456.2886" y1="1266.0645" x2="465.8719" y2="1262.0835" gradientTransform="matrix(0.8819 0.4714 0.4714 -0.8819 -507.5187 1206.1212)">
	<stop  offset="0" style="stop-color:#CBF060"/>
	<stop  offset="0.338" style="stop-color:#A3D256"/>
	<stop  offset="0.7792" style="stop-color:#74AF4B"/>
	<stop  offset="1" style="stop-color:#62A147"/>
</linearGradient>
<path id="XMLID_16_" class="st42" d="M502.1,315.7c-2.8,5.5-10.1,5.5-10.1,5.5s-4.1-6.4-1.3-12c2.8-5.5,11.4-8,11.4-8
	S504.9,310.2,502.1,315.7z"/>
<linearGradient id="XMLID_110_" gradientUnits="userSpaceOnUse" x1="454.5545" y1="1271.6202" x2="477.315" y2="1250.6106" gradientTransform="matrix(0.8819 0.4714 0.4714 -0.8819 -507.5187 1206.1212)">
	<stop  offset="0" style="stop-color:#CBF060"/>
	<stop  offset="0.338" style="stop-color:#A3D256"/>
	<stop  offset="0.7792" style="stop-color:#74AF4B"/>
	<stop  offset="1" style="stop-color:#62A147"/>
</linearGradient>
<path id="XMLID_15_" class="st43" d="M502.1,315.7c2.8-5.5,0-14.5,0-14.5l-10.1,20C492,321.2,499.3,321.2,502.1,315.7z"/>
<linearGradient id="XMLID_111_" gradientUnits="userSpaceOnUse" x1="222.5693" y1="1726.3567" x2="232.2765" y2="1722.3243" gradientTransform="matrix(0.6976 0.7165 0.7165 -0.6976 -913.8641 1336.2723)">
	<stop  offset="0" style="stop-color:#CBF060"/>
	<stop  offset="0.338" style="stop-color:#A3D256"/>
	<stop  offset="0.7792" style="stop-color:#74AF4B"/>
	<stop  offset="1" style="stop-color:#62A147"/>
</linearGradient>
<path id="XMLID_14_" class="st44" d="M485,305.3c-4.2,4.4-11.2,2-11.2,2s-2.1-7.5,2.2-11.8c4.2-4.4,13.2-4,13.2-4
	S489.2,300.9,485,305.3z"/>
<linearGradient id="XMLID_112_" gradientUnits="userSpaceOnUse" x1="221.0055" y1="1731.7498" x2="243.642" y2="1710.8545" gradientTransform="matrix(0.6976 0.7165 0.7165 -0.6976 -913.8641 1336.2723)">
	<stop  offset="0" style="stop-color:#CBF060"/>
	<stop  offset="0.338" style="stop-color:#A3D256"/>
	<stop  offset="0.7792" style="stop-color:#74AF4B"/>
	<stop  offset="1" style="stop-color:#62A147"/>
</linearGradient>
<path id="XMLID_13_" class="st45" d="M485,305.3c4.2-4.4,4.1-13.8,4.1-13.8l-15.3,15.8C473.8,307.3,480.7,309.6,485,305.3z"/>
<linearGradient id="XMLID_113_" gradientUnits="userSpaceOnUse" x1="195.7179" y1="-273.4137" x2="205.0921" y2="-277.3078" gradientTransform="matrix(0.9029 -0.4299 -0.4299 -0.9029 246.8402 207.1899)">
	<stop  offset="0" style="stop-color:#CBF060"/>
	<stop  offset="0.338" style="stop-color:#A3D256"/>
	<stop  offset="0.7792" style="stop-color:#74AF4B"/>
	<stop  offset="1" style="stop-color:#62A147"/>
</linearGradient>
<path id="XMLID_12_" class="st46" d="M555.9,367.8c2.6,5.7-1.9,12.1-1.9,12.1s-7.5-0.3-10.1-6.1c-2.6-5.7,0.7-14.7,0.7-14.7
	S553.3,362.1,555.9,367.8z"/>
<linearGradient id="XMLID_114_" gradientUnits="userSpaceOnUse" x1="194.0965" y1="-268.0249" x2="216.2336" y2="-288.4591" gradientTransform="matrix(0.9029 -0.4299 -0.4299 -0.9029 246.8402 207.1899)">
	<stop  offset="0" style="stop-color:#CBF060"/>
	<stop  offset="0.338" style="stop-color:#A3D256"/>
	<stop  offset="0.7792" style="stop-color:#74AF4B"/>
	<stop  offset="1" style="stop-color:#62A147"/>
</linearGradient>
<path id="XMLID_11_" class="st47" d="M555.9,367.8c-2.6-5.7-11.2-8.7-11.2-8.7l9.4,20.8C554,379.9,558.5,373.6,555.9,367.8z"/>
<g id="XMLID_48_">
	
		<linearGradient id="XMLID_115_" gradientUnits="userSpaceOnUse" x1="-2.5245" y1="2019.5806" x2="8.9678" y2="2014.8066" gradientTransform="matrix(0.4867 0.8736 0.8736 -0.4867 -1195.8265 1348.2461)">
		<stop  offset="0" style="stop-color:#CBF060"/>
		<stop  offset="0.338" style="stop-color:#A3D256"/>
		<stop  offset="0.7792" style="stop-color:#74AF4B"/>
		<stop  offset="1" style="stop-color:#62A147"/>
	</linearGradient>
	<path id="XMLID_10_" class="st48" d="M570.9,381c-6.5,3.6-14.2-1.4-14.2-1.4s-0.2-9.2,6.3-12.7c6.5-3.6,17.1-0.3,17.1-0.3
		S577.3,377.4,570.9,381z"/>
	
		<linearGradient id="XMLID_116_" gradientUnits="userSpaceOnUse" x1="-4.3223" y1="2025.9541" x2="22.381" y2="2001.3049" gradientTransform="matrix(0.4867 0.8736 0.8736 -0.4867 -1195.8265 1348.2461)">
		<stop  offset="0" style="stop-color:#CBF060"/>
		<stop  offset="0.338" style="stop-color:#A3D256"/>
		<stop  offset="0.7792" style="stop-color:#74AF4B"/>
		<stop  offset="1" style="stop-color:#62A147"/>
	</linearGradient>
	<path id="XMLID_9_" class="st49" d="M570.9,381c6.5-3.6,9.2-14.4,9.2-14.4l-23.4,13C556.7,379.6,564.4,384.6,570.9,381z"/>
</g>
<linearGradient id="XMLID_117_" gradientUnits="userSpaceOnUse" x1="518.104" y1="255.2904" x2="501.2272" y2="195.552" gradientTransform="matrix(1 0 0 -1 0 794)">
	<stop  offset="0" style="stop-color:#8C6F5A"/>
	<stop  offset="1" style="stop-color:#5C3D3B"/>
</linearGradient>
<path id="XMLID_8_" class="st50" d="M594.3,599H440.8l0,0c-10.8-3.3-20.4-7.6-29.2-13.3c0.9-0.8,1.6-1.6,2.3-2.3
	c0.3-0.3,0.6-0.7,0.9-1.1c1.5-1.7,3.7-3.9,6.2-6.3c4.9-4.9,10.6-10.3,13.1-12.3c3.9-3.2,14.7-7.2,19.4-11.7c1.3-1.3,2.7-2.6,4.3-3.8
	l0,0c4-3.3,8.8-6.3,14.4-7.6c7-1.6,14.1-8.1,21.8-7.3l0,0c1,0.1,1.9,0.3,2.9,0.7c3.4,1.2,6.8,3.5,10,5.9l0,0
	c5.1,3.8,10,8.2,14.8,10.1c3.8,1.5,8.8,3,13.8,4.8c0,0,0,0,0.1,0l0,0c2.6,0.9,5.2,2,7.6,3.1c2.5,1.2,4.7,2.6,6.3,4.2
	c6.1,5.9,16.4,17.6,23,20.3c0.1,0,0.1,0.1,0.2,0.1c1.8,0.7,3.8,1.8,5.9,3l0,0c4.1,2.5,8.4,5.8,11.6,9.1c1.2,1.2,2.2,2.3,3,3.4
	C593.6,598.3,593.9,598.7,594.3,599L594.3,599z"/>
<linearGradient id="XMLID_118_" gradientUnits="userSpaceOnUse" x1="685.7731" y1="298.7607" x2="793.9322" y2="260.7039" gradientTransform="matrix(0.9885 0.151 0.151 -0.9885 -88.2248 687.3915)">
	<stop  offset="0" style="stop-color:#FFD8C2"/>
	<stop  offset="1" style="stop-color:#FFB49C"/>
</linearGradient>
<path id="XMLID_7_" class="st51" d="M712.6,464.1c0,0-19.9,24.2-28.8,31.3c-8.9,7.1-67.8,30.6-72.5,31.9l2.2,30
	c0,0,47.3-8.6,68.5-15.6c21.2-6.9,34.3-12.6,39.3-17.7c5-5.2,23.2-25.3,23.2-25.3L712.6,464.1z"/>
<linearGradient id="XMLID_119_" gradientUnits="userSpaceOnUse" x1="752.4512" y1="391.7745" x2="815.7909" y2="346.8777" gradientTransform="matrix(0.9885 0.151 0.151 -0.9885 -88.2248 687.3915)">
	<stop  offset="5.376341e-003" style="stop-color:#0071BC"/>
	<stop  offset="1" style="stop-color:#2E3192"/>
</linearGradient>
<path id="XMLID_6_" class="st52" d="M751.5,402.7c-9.5,6.3-46,58.5-46.3,60.3s6.7,13.8,19,27.6c12.4,13.7,22.2,20.1,24,19
	c1.9-1.2,32.9-24.3,36.2-36.6c3.3-12.3,7.2-39.7,0.3-55.9C777.8,400.9,762.9,395.1,751.5,402.7z"/>
<linearGradient id="XMLID_120_" gradientUnits="userSpaceOnUse" x1="639.2585" y1="254.6028" x2="599.0768" y2="244.3658" gradientTransform="matrix(0.9885 0.151 0.151 -0.9885 -88.2248 687.3915)">
	<stop  offset="0" style="stop-color:#DA3D8E"/>
	<stop  offset="0.3212" style="stop-color:#E15DA0"/>
	<stop  offset="0.4587" style="stop-color:#E56CA9"/>
	<stop  offset="0.9946" style="stop-color:#F4ABCC"/>
</linearGradient>
<path id="XMLID_5_" class="st53" d="M589.2,530.9c0,0-10.1-3.5-13.7-4.1c-3.7-0.6-7.6-0.8-11.1,1.1c-3.5,1.9-7.6,1.9-10.2,2.4
	c-2.6,0.5-9.2,2.4-11.3,2.4c-2.2,0-1.1,4.5,3.6,6s7.9-0.4,9.6-0.5c1.7-0.1,5.3,1.7,9.3,2.3C569.3,541.2,588.1,538.6,589.2,530.9z"/>
<linearGradient id="XMLID_121_" gradientUnits="userSpaceOnUse" x1="565.7224" y1="224.5561" x2="517.8246" y2="227.6888" gradientTransform="matrix(1 0 0 -1 0 794)">
	<stop  offset="0" style="stop-color:#DA3D8E"/>
	<stop  offset="0.3205" style="stop-color:#E25DA0"/>
	<stop  offset="0.9946" style="stop-color:#F4ABCC"/>
</linearGradient>
<path id="XMLID_4_" class="st54" d="M521.7,560.7c0,0,3.7,4.3,7,6.5s8.5,2.6,10.2,3.3s4.5,4.4,6.2,5.6s3.7,3,7.9,3.3
	c4.2,0.3,16.7,0.5,16.7,0.5l-15.1-22L521.7,560.7z"/>
<linearGradient id="XMLID_122_" gradientUnits="userSpaceOnUse" x1="647.5051" y1="224.9183" x2="606.0995" y2="238.7904" gradientTransform="matrix(0.9885 0.151 0.151 -0.9885 -88.2248 687.3915)">
	<stop  offset="0" style="stop-color:#DA3D8E"/>
	<stop  offset="0.3205" style="stop-color:#E25DA0"/>
	<stop  offset="0.9946" style="stop-color:#F4ABCC"/>
</linearGradient>
<path id="XMLID_3_" class="st55" d="M590.1,531.5c-0.7-1.4-4.2-1.3-8.9-0.2s-19.4,8.9-25.6,11.5c-6.2,2.6-15.7,8-18.9,8.9
	c-3.2,0.9-5.8,0.3-9.1,1c-3.3,0.6-8.4,2-10.6,3.8s-2.7,3-1.3,4s3.5,2.1,7.5,1.9c3.9-0.3,7.8-0.1,11.8,0.2c4,0.3,5.6,0.6,8.5-0.1
	c2.9-0.7,8.8-1.8,10.8-1.6s7.2,8,9.8,12.3c2.6,4.4,3.6,6.1,5.5,6.4c1.9,0.3,17.8-3.4,28.7-13.9C598.4,565.9,594.4,540.1,590.1,531.5
	z"/>
<linearGradient id="XMLID_123_" gradientUnits="userSpaceOnUse" x1="667.2657" y1="221.3974" x2="665.3473" y2="296.5015" gradientTransform="matrix(0.9885 0.151 0.151 -0.9885 -88.2248 687.3915)">
	<stop  offset="0" style="stop-color:#DA3D8E"/>
	<stop  offset="0.3205" style="stop-color:#E25DA0"/>
	<stop  offset="0.9946" style="stop-color:#F4ABCC"/>
</linearGradient>
<path id="XMLID_2_" class="st56" d="M594.3,528c-2.5,0.6-4.9,0.9-5.1,2.9c-0.2,2,3.6,11.5,5.3,19.8s2,11.7,2.4,13.9s0.8,3,4,2.6
	c3.3-0.4,9.1-1.2,15-2.1c5.9-1,10.1-1.4,10.4-4.6c0.2-3.3-2.7-19.2-4.3-26.8s-4.5-13.8-6.9-14.2C612.7,519,603.5,525.7,594.3,528z"
	/>
<linearGradient id="SVGID_2_" gradientUnits="userSpaceOnUse" x1="692.0929" y1="320.3976" x2="803.1437" y2="320.3976">
	<stop  offset="0" style="stop-color:#FDE589"/>
	<stop  offset="0.9946" style="stop-color:#FFCE01"/>
</linearGradient>
<path class="st57" d="M701.1,260.9c-0.1-3.1,1.8-5.9,3.7-8.4c4.3-5.9,9.4-12.2,16.6-13.6c4.2-0.8,8.5,0.4,12.7,1.5
	c7.1,1.9,14.6,4,20,9c3.9,3.6,6.3,8.4,8.6,13.2c5.6,12,10.1,26,5.1,38.3c-2,5-5.5,9.2-7.8,14c-5.7,12.1-2.6,27.8,7.2,36.9
	c2.7,2.5,6.1,4.6,9.8,5.1c3.7,0.5,7.8-0.9,9.8-4.1c3-4.8,0.2-11.1-3.3-15.5c11.6,10.5,18.9,25.6,19.8,41.2c0.3,4.4-0.1,9.3-3,12.7
	c-3.6,4.3-9.9,4.9-15.3,6.5c-5,1.5-9.8,4.2-15,4.5c-6,0.4-11.7-2.4-16.9-5.4c-11.5-6.6-22.3-14.4-32.1-23.3
	c-4.7-4.3-9.4-9.2-10.4-15.4c-1.3-8.4,4.5-16.2,10.5-22.3c6-6.1,12.9-12.2,14.6-20.6c1.3-6.2-0.5-12.7-3.7-18.1
	c-3.2-5.4-7.7-9.9-12.2-14.3c-2.4-2.4-5.1-4.8-8.4-5.6c-3.3-0.8-7.4,0.9-8.1,4.3c-3.7-6.1-7.4-12.2-11.1-18.2
	c4-1.3,8.3-2.9,10.1-6.7"/>
<g id="XMLID_68_">
	<g>
		<linearGradient id="SVGID_3_" gradientUnits="userSpaceOnUse" x1="703.1499" y1="359.6118" x2="737.4454" y2="333.8902">
			<stop  offset="0" style="stop-color:#FDE589"/>
			<stop  offset="0.9946" style="stop-color:#FFCE01"/>
		</linearGradient>
		<path class="st58" d="M771.4,358.9c9.2,8.7,14.7,23.1,14.5,37.5c0,2.7-0.3,5.5-1.2,7.9c-0.9,2.6-2.5,4.8-4.1,6.9
			c-2.7,3.6-5.5,7.4-9.4,8.7c-2.3,0.8-4.8,0.6-7.2,0.2c-22.2-3.7-41.9-24.2-48.9-50.7c-2.4-9.3-3.3-20,0.6-28.5
			c4-8.9,12.4-13.9,15.7-23.2c3.8-10.8-0.5-23.5-6.7-32.4c-2.5-3.6-5.4-7-9-8.9c-3.6-1.9-7.9-2-11.1,0.5c-3.3,2.6-5,8.2-3.3,12.5
			c-4-3.6-6.6-9.6-6.9-15.7l-0.5-1.6c5-12.6,12.2-23.9,20.9-32.9c1.8-1.9,3.7-3.6,5.8-4.8c5.1-2.7,11-1.5,16.5-0.2
			c4.8,1.2,9.8,2.5,14,5.7c10,7.5,13.6,23.2,16,37.4c2.4,14,4.4,28.7,1.2,42.5c-2.2,9.6-6.7,18-9.4,27.4c-2.7,9.4-3.1,20.9,2.3,28.2
			c1.9,2.6,4.5,4.6,7.4,4.8c2.9,0.2,5.9-1.4,7.2-4.5C778.4,370.3,775,363.5,771.4,358.9z"/>
	</g>
	<g>
	</g>
</g>
<linearGradient id="XMLID_124_" gradientUnits="userSpaceOnUse" x1="398.6367" y1="228.5516" x2="420.2024" y2="191.9401" gradientTransform="matrix(1 0 0 -1 0 794)">
	<stop  offset="0" style="stop-color:#8C6F5A"/>
	<stop  offset="1" style="stop-color:#5C3D3B"/>
</linearGradient>
<path id="XMLID_66_" class="st59" d="M470.8,599H366c4.2-2.9,8.3-5.4,11.9-7.3c9.6-5,16.5-11.7,22.5-16.7c3.8-3.2,7.3-5.6,10.9-6.5
	c4.3-1,8.5-2.5,12.7-2.6c4.9-0.2,9.8,1.4,15.3,7.2c0.6,0.6,1.2,1.3,1.9,1.9C448.1,581.5,460,589.8,470.8,599z"/>
<g id="XMLID_67_">
	<g>
		<linearGradient id="SVGID_4_" gradientUnits="userSpaceOnUse" x1="769.0099" y1="321.9259" x2="703.5768" y2="298.2973">
			<stop  offset="0" style="stop-color:#FDE589"/>
			<stop  offset="0.9946" style="stop-color:#FFCE01"/>
		</linearGradient>
		<path class="st60" d="M781.3,344c9.2,7,14.7,18.5,14.5,30c0,2.2-0.3,4.4-1.2,6.4c-0.9,2.1-2.5,3.9-4.1,5.6c-2.7,2.9-5.5,5.9-9.3,7
			c-2.3,0.6-4.8,0.5-7.2,0.1c-22.2-2.9-42-19.4-48.9-40.7c-2.4-7.5-3.3-16,0.6-22.8c4-7.1,12.4-11.1,15.7-18.6
			c3.8-8.6-0.5-18.9-6.7-26c-2.5-2.9-5.5-5.6-9-7.1s-7.9-1.6-11.1,0.4s-5,6.6-3.3,10c-4-2.9-6.6-7.7-6.9-12.6l-0.5-1.3
			c5-10.1,12.2-19.2,20.9-26.4c1.8-1.5,3.7-2.9,5.8-3.8c5.1-2.2,11-1.2,16.5-0.1c4.8,1,9.8,2,14,4.5c10,6,13.6,18.6,16,30
			c2.4,11.2,4.4,23,1.2,34c-2.2,7.7-6.7,14.5-9.4,22c-2.7,7.5-3.1,16.7,2.3,22.7c1.9,2.1,4.5,3.7,7.4,3.9c2.9,0.2,5.9-1.1,7.2-3.6
			C788.2,353.2,784.8,347.7,781.3,344z"/>
	</g>
	<g>
	</g>
</g>
<linearGradient id="SVGID_5_" gradientUnits="userSpaceOnUse" x1="702.7459" y1="272.6125" x2="715.8121" y2="260.0912">
	<stop  offset="0" style="stop-color:#DA3D8E"/>
	<stop  offset="0.3205" style="stop-color:#E25DA0"/>
	<stop  offset="0.9946" style="stop-color:#F4ABCC"/>
</linearGradient>
<path class="st61" d="M699.5,261.6c-0.7-1.2-1.1-2.6-1.2-3.9c0-0.3,0-0.6,0.1-0.9c0.2-0.2,0.5-0.4,0.7-0.5c4.4-1.4,9.1,1.2,12.4,4.4
	c3,3,5.4,6.5,7,10.5c0.6,1.4,1,3,0.8,4.5c-0.3,1.5-1.5,3-3.1,3c-1.3,0-2.4-0.9-3.4-1.8c-4.5-4.3-8.6-9-12.7-13.6
	c-0.8-0.9-1.6-2-1.2-3.1"/>
<linearGradient id="XMLID_125_" gradientUnits="userSpaceOnUse" x1="628.3328" y1="480.8972" x2="724.1622" y2="447.1786" gradientTransform="matrix(1 0 0 -1 0 794)">
	<stop  offset="0" style="stop-color:#FFD8C2"/>
	<stop  offset="1" style="stop-color:#FFB49C"/>
</linearGradient>
<path id="XMLID_53_" class="st62" d="M630.5,291.5c-4.9,14.9-4.3,25.3-3.2,34.1s2.2,13.6,1.8,20.5c-0.4,6.8,1.4,17.7,8.2,25.8
	c6.8,8.1,11.4,14.2,18.3,14.2c13.6,0,29.3-12.3,36.4-19.5c7.1-7.3,9-15.6,9-15.6s15.3-8.6,15.9-37.6c0.6-29-22.3-46-43.4-46
	C650.7,267.3,635,277.8,630.5,291.5z"/>
<linearGradient id="XMLID_126_" gradientUnits="userSpaceOnUse" x1="648.6373" y1="527.8779" x2="697.1288" y2="461.1078" gradientTransform="matrix(1 0 0 -1 0 794)">
	<stop  offset="0" style="stop-color:#FDE589"/>
	<stop  offset="1" style="stop-color:#FFCE01"/>
</linearGradient>
<path id="XMLID_52_" class="st63" d="M684.1,306.3c-1.8-3-6.3-8-13.6-6.4c-7.3,1.5-23.1,11.3-32.8,10.9c-9.7-0.4-13.4-2.5-18.6-6.5
	c-5.1-4-7.8-11.3-6.6-11.3s5.9-0.7,8.4-1.7c-4.4-2.2-7.6-10.2-6.5-10.8c1-0.6,8.3,0.8,17.4-7.4c9.1-8.3,18.7-16.2,39.4-16.7
	c20.7-0.6,31.3,5.5,36.5,11.4c6.5,7.1,8.3,15.2,8.3,15.2s11.9,6.5,9.7,29.1s-10.6,31.8-16,36.9l-8.4-22.3c0,0-2,9.3-2.8,10.5
	c-0.8,1.2-4.9,1.3-4.9,0c0-1.3,0-9.4,0-11.2s-1.2-4.1-2.1-4.7c-0.9-0.6-5.4-2-5.5-4C685.8,314.8,685.5,308.6,684.1,306.3z"/>
<linearGradient id="XMLID_127_" gradientUnits="userSpaceOnUse" x1="636.1421" y1="480.1384" x2="722.98" y2="449.5836" gradientTransform="matrix(1 0 0 -1 0 794)">
	<stop  offset="0" style="stop-color:#FFD8C2"/>
	<stop  offset="1" style="stop-color:#FFB49C"/>
</linearGradient>
<path id="XMLID_51_" class="st64" d="M701.2,329.1c0,0,0.9-5.5,4.5-5.7c3.6-0.3,9.9,1.6,9.6,12.5c-0.3,10.9-7.8,17.3-14.8,16.4
	L701.2,329.1z"/>
</svg>
